<svg width="1348" height="1064" viewBox="0 0 1348 1064" fill="none" xmlns="http://www.w3.org/2000/svg">
    <g filter="url(#filter0_d)">
        <g filter="url(#filter1_d)">
            <path d="M399.778 795.589C399.775 795.587 399.771 795.584 399.761 795.573C399.751 795.56 399.725 795.527 399.694 795.457C399.627 795.309 399.547 795.029 399.523 794.558C399.474 793.599 399.674 792.178 400.224 790.266C401.317 786.468 403.633 781.255 407.103 774.964C414.024 762.412 425.344 745.906 439.924 728.45C468.975 693.67 510.721 655.415 556 637.115L571.081 641.564C528.002 662.803 488.06 702.292 457.301 735.923C449.318 744.652 441.94 753.002 435.279 760.549L434.582 761.339C428.198 768.573 422.497 775.033 417.553 780.371C412.414 785.92 408.169 790.172 404.879 792.801C403.224 794.124 401.92 794.946 400.946 795.343C400.466 795.538 400.145 795.598 399.955 795.605C399.865 795.608 399.816 795.599 399.796 795.595C399.786 795.592 399.781 795.59 399.78 795.59L399.778 795.589Z" fill="#FFE55F" stroke="black" stroke-width="4"/>
            <path d="M506.45 834.033C506.45 834.432 506.211 835.16 504.954 836.188C503.721 837.197 501.781 838.26 499.091 839.325C493.731 841.447 485.857 843.399 475.982 845.052C456.265 848.354 428.949 850.406 398.725 850.406C368.501 850.406 341.185 848.354 321.468 845.052C311.593 843.399 303.719 841.447 298.359 839.325C295.669 838.26 293.729 837.197 292.496 836.188C291.239 835.16 291 834.432 291 834.033C291 833.635 291.239 832.907 292.496 831.879C293.729 830.87 295.669 829.806 298.359 828.742C303.719 826.62 311.593 824.668 321.468 823.015C341.185 819.713 368.501 817.661 398.725 817.661C428.949 817.661 456.265 819.713 475.982 823.015C485.857 824.668 493.731 826.62 499.091 828.742C501.781 829.806 503.721 830.87 504.954 831.879C506.211 832.907 506.45 833.635 506.45 834.033Z" fill="#F1FF98" stroke="black" stroke-width="4"/>
            <path d="M447.154 830.867C447.154 830.867 447.153 830.87 447.151 830.876C447.152 830.87 447.154 830.867 447.154 830.867ZM446.767 830.651C446.937 830.793 447.034 830.9 447.089 830.972C447.034 831.043 446.937 831.15 446.767 831.292C446.285 831.698 445.452 832.181 444.191 832.695C441.685 833.714 437.94 834.674 433.165 835.496C423.648 837.134 410.422 838.158 395.76 838.158C381.097 838.158 367.871 837.134 358.354 835.496C353.579 834.674 349.834 833.714 347.328 832.695C346.067 832.181 345.234 831.698 344.752 831.292C344.582 831.15 344.485 831.043 344.43 830.972C344.485 830.9 344.582 830.793 344.752 830.651C345.234 830.245 346.067 829.762 347.328 829.248C349.834 828.229 353.579 827.269 358.354 826.447C367.871 824.809 381.097 823.785 395.76 823.785C410.422 823.785 423.648 824.809 433.165 826.447C437.94 827.269 441.685 828.229 444.191 829.248C445.452 829.762 446.285 830.245 446.767 830.651ZM344.365 830.867C344.365 830.867 344.367 830.87 344.368 830.876C344.366 830.87 344.365 830.867 344.365 830.867ZM344.365 831.076C344.365 831.076 344.366 831.073 344.368 831.067C344.367 831.073 344.365 831.076 344.365 831.076ZM447.151 831.067C447.153 831.073 447.154 831.076 447.154 831.076C447.154 831.076 447.152 831.073 447.151 831.067Z" stroke="black" stroke-width="4"/>
            <mask id="path-4-inside-1" fill="white">
                <ellipse cx="395.76" cy="830.972" rx="23.7243" ry="3.06206"/>
            </mask>
            <path d="M415.484 830.972C415.484 829.963 415.895 829.221 416.218 828.811C416.516 828.432 416.8 828.248 416.868 828.205C416.995 828.125 416.923 828.194 416.452 828.338C415.569 828.607 414.09 828.903 412.023 829.17C407.947 829.696 402.195 830.034 395.76 830.034V838.034C402.427 838.034 408.537 837.686 413.047 837.104C415.274 836.816 417.269 836.453 418.787 835.989C419.517 835.767 420.377 835.451 421.136 834.972C421.656 834.644 423.484 833.397 423.484 830.972H415.484ZM395.76 830.034C389.324 830.034 383.572 829.696 379.496 829.17C377.429 828.903 375.95 828.607 375.067 828.338C374.596 828.194 374.524 828.125 374.651 828.205C374.719 828.248 375.003 828.432 375.301 828.811C375.624 829.221 376.035 829.963 376.035 830.972H368.035C368.035 833.397 369.863 834.644 370.383 834.972C371.142 835.451 372.002 835.767 372.732 835.989C374.25 836.453 376.245 836.816 378.472 837.104C382.982 837.686 389.092 838.034 395.76 838.034V830.034ZM376.035 830.972C376.035 831.98 375.624 832.722 375.301 833.132C375.003 833.511 374.719 833.695 374.651 833.738C374.524 833.818 374.596 833.749 375.067 833.606C375.95 833.336 377.429 833.04 379.496 832.773C383.572 832.247 389.324 831.91 395.76 831.91V823.91C389.092 823.91 382.982 824.257 378.472 824.839C376.245 825.127 374.25 825.491 372.732 825.954C372.002 826.177 371.142 826.492 370.383 826.971C369.863 827.299 368.035 828.546 368.035 830.972H376.035ZM395.76 831.91C402.195 831.91 407.947 832.247 412.023 832.773C414.09 833.04 415.569 833.336 416.452 833.606C416.923 833.749 416.995 833.818 416.868 833.738C416.8 833.695 416.516 833.511 416.218 833.132C415.895 832.722 415.484 831.98 415.484 830.972H423.484C423.484 828.546 421.656 827.299 421.136 826.971C420.377 826.492 419.517 826.177 418.787 825.954C417.269 825.491 415.274 825.127 413.047 824.839C408.537 824.257 402.427 823.91 395.76 823.91V831.91Z" fill="black" mask="url(#path-4-inside-1)"/>
            <path d="M978.088 66.4652L978.686 67.3032H979.716C1013.12 67.3032 1035.23 84.5537 1043.69 94.8285C1029.1 98.9801 998.627 105.379 973.776 103.118C966.321 102.44 960.043 105.459 954.898 110.549C949.796 115.598 945.731 122.745 942.519 130.611C936.092 146.351 932.851 165.549 931.82 178.428C926.783 233.904 950.537 271.109 975.916 310.859C981.732 319.969 987.633 329.212 993.292 338.839C1005.24 359.17 1008.32 388.557 1008.32 413.535C1008.32 425.973 1007.56 437.22 1006.8 445.553C1006.42 449.718 1006.03 453.154 1005.75 455.647C1005.69 456.159 1005.63 456.634 1005.58 457.069C1005.51 457.687 1005.45 458.223 1005.4 458.664C1005.32 459.35 1005.26 459.976 1005.26 460.309C1005.26 483.346 993.745 505.467 974.703 526.226C955.67 546.977 929.272 566.189 899.906 583.361C841.302 617.631 771.247 643.568 725.426 657.343H701.322C688.994 656.317 657.799 654.281 630.854 654.281C614.712 654.281 599.245 649.24 583.067 643.968L582.128 643.662C565.711 638.313 548.591 632.846 529.868 632.846C517.319 632.846 497.221 635.598 474.211 638.749C469.965 639.33 465.621 639.925 461.206 640.519C432.741 644.347 401.19 648.156 373.799 648.156H373.785L373.771 648.157L153.651 651.216C146.193 649.696 135.105 645.962 125.901 639.699C116.602 633.373 109.562 624.717 109.562 613.412C109.562 612.497 109.956 611.415 111.036 610.135C112.123 608.848 113.81 607.477 116.138 606.05C120.793 603.198 127.647 600.337 136.298 597.515C153.571 591.88 177.563 586.541 204.314 581.697C257.793 572.014 321.996 564.365 364.808 560.286L365.335 560.235L365.768 559.931C441.302 506.82 610.474 392.215 683.724 358.011C757.587 323.52 778.666 277.671 779.74 258.324L779.742 258.295L779.743 258.266C780.253 238.864 780.865 208.842 781.044 181.828C781.133 168.322 781.114 155.557 780.919 145.243C780.725 134.991 780.357 127.001 779.716 123.154C778.546 116.13 779.267 105.676 780.719 95.2818C782.139 85.1086 784.223 75.2234 785.734 69.1325C792.307 58.0704 804.802 41.5546 821.038 27.7874C837.417 13.8983 857.37 3 878.729 3C900.139 3 921.138 13.4328 938.808 26.7125C956.451 39.9721 970.542 55.8945 978.088 66.4652Z" fill="#D3BF54"/>
            <path d="M978.088 66.4652L978.686 67.3032H979.716C1013.12 67.3032 1035.23 84.5537 1043.69 94.8285C1029.1 98.9801 998.627 105.379 973.776 103.118C966.321 102.44 960.043 105.459 954.898 110.549C949.796 115.598 945.731 122.745 942.519 130.611C936.092 146.351 932.851 165.549 931.82 178.428C926.783 233.904 950.537 271.109 975.916 310.859C981.732 319.969 987.633 329.212 993.292 338.839C1005.24 359.17 1008.32 388.557 1008.32 413.535C1008.32 425.973 1007.56 437.22 1006.8 445.553C1006.42 449.718 1006.03 453.154 1005.75 455.647C1005.69 456.159 1005.63 456.634 1005.58 457.069C1005.51 457.687 1005.45 458.223 1005.4 458.664C1005.32 459.35 1005.26 459.976 1005.26 460.309C1005.26 483.346 993.745 505.467 974.703 526.226C955.67 546.977 929.272 566.189 899.906 583.361C841.302 617.631 771.247 643.568 725.426 657.343H701.322C688.994 656.317 657.799 654.281 630.854 654.281C614.712 654.281 599.245 649.24 583.067 643.968L582.128 643.662C565.711 638.313 548.591 632.846 529.868 632.846C517.319 632.846 497.221 635.598 474.211 638.749C469.965 639.33 465.621 639.925 461.206 640.519C432.741 644.347 401.19 648.156 373.799 648.156H373.785L373.771 648.157L153.651 651.216C146.193 649.696 135.105 645.962 125.901 639.699C116.602 633.373 109.562 624.717 109.562 613.412C109.562 612.497 109.956 611.415 111.036 610.135C112.123 608.848 113.81 607.477 116.138 606.05C120.793 603.198 127.647 600.337 136.298 597.515C153.571 591.88 177.563 586.541 204.314 581.697C257.793 572.014 321.996 564.365 364.808 560.286L365.335 560.235L365.768 559.931C441.302 506.82 610.474 392.215 683.724 358.011C757.587 323.52 778.666 277.671 779.74 258.324L779.742 258.295L779.743 258.266C780.253 238.864 780.865 208.842 781.044 181.828C781.133 168.322 781.114 155.557 780.919 145.243C780.725 134.991 780.357 127.001 779.716 123.154C778.546 116.13 779.267 105.676 780.719 95.2818C782.139 85.1086 784.223 75.2234 785.734 69.1325C792.307 58.0704 804.802 41.5546 821.038 27.7874C837.417 13.8983 857.37 3 878.729 3C900.139 3 921.138 13.4328 938.808 26.7125C956.451 39.9721 970.542 55.8945 978.088 66.4652Z" fill="white"/>
            <path d="M978.088 66.4652L978.686 67.3032H979.716C1013.12 67.3032 1035.23 84.5537 1043.69 94.8285C1029.1 98.9801 998.627 105.379 973.776 103.118C966.321 102.44 960.043 105.459 954.898 110.549C949.796 115.598 945.731 122.745 942.519 130.611C936.092 146.351 932.851 165.549 931.82 178.428C926.783 233.904 950.537 271.109 975.916 310.859C981.732 319.969 987.633 329.212 993.292 338.839C1005.24 359.17 1008.32 388.557 1008.32 413.535C1008.32 425.973 1007.56 437.22 1006.8 445.553C1006.42 449.718 1006.03 453.154 1005.75 455.647C1005.69 456.159 1005.63 456.634 1005.58 457.069C1005.51 457.687 1005.45 458.223 1005.4 458.664C1005.32 459.35 1005.26 459.976 1005.26 460.309C1005.26 483.346 993.745 505.467 974.703 526.226C955.67 546.977 929.272 566.189 899.906 583.361C841.302 617.631 771.247 643.568 725.426 657.343H701.322C688.994 656.317 657.799 654.281 630.854 654.281C614.712 654.281 599.245 649.24 583.067 643.968L582.128 643.662C565.711 638.313 548.591 632.846 529.868 632.846C517.319 632.846 497.221 635.598 474.211 638.749C469.965 639.33 465.621 639.925 461.206 640.519C432.741 644.347 401.19 648.156 373.799 648.156H373.785L373.771 648.157L153.651 651.216C146.193 649.696 135.105 645.962 125.901 639.699C116.602 633.373 109.562 624.717 109.562 613.412C109.562 612.497 109.956 611.415 111.036 610.135C112.123 608.848 113.81 607.477 116.138 606.05C120.793 603.198 127.647 600.337 136.298 597.515C153.571 591.88 177.563 586.541 204.314 581.697C257.793 572.014 321.996 564.365 364.808 560.286L365.335 560.235L365.768 559.931C441.302 506.82 610.474 392.215 683.724 358.011C757.587 323.52 778.666 277.671 779.74 258.324L779.742 258.295L779.743 258.266C780.253 238.864 780.865 208.842 781.044 181.828C781.133 168.322 781.114 155.557 780.919 145.243C780.725 134.991 780.357 127.001 779.716 123.154C778.546 116.13 779.267 105.676 780.719 95.2818C782.139 85.1086 784.223 75.2234 785.734 69.1325C792.307 58.0704 804.802 41.5546 821.038 27.7874C837.417 13.8983 857.37 3 878.729 3C900.139 3 921.138 13.4328 938.808 26.7125C956.451 39.9721 970.542 55.8945 978.088 66.4652Z" stroke="black" stroke-width="4"/>
            <path d="M701.239 688.901H703.239V686.901V661.343H723.72V686.901V688.901H725.72H732.901V718.584H725.72H723.72V720.584V791.011V793.011H725.72H797.165V825.756H703.239V720.584V718.584H701.239H694.058V688.901H701.239ZM980.01 67.3037C1013.25 67.4047 1035.26 84.5839 1043.69 94.8284C1029.21 98.9483 999.093 105.281 974.348 103.169C968.602 98.7087 963.247 91.6913 962.579 85.0077C962.248 81.6869 963.061 78.4127 965.644 75.4112C968.24 72.3948 972.738 69.5247 980.01 67.3037Z" fill="#C48815" stroke="black" stroke-width="4"/>
            <path d="M683.724 358.011C749.713 327.197 773.572 287.317 778.675 265.369C799.427 315.483 808.83 395.417 779.463 468.411C748.91 544.354 676.248 613.133 529.733 632.846C517.175 632.866 497.139 635.609 474.21 638.749C469.965 639.33 465.621 639.925 461.206 640.519C432.741 644.347 401.19 648.156 373.799 648.156H373.785L373.771 648.156L153.651 651.216C146.193 649.696 135.105 645.962 125.901 639.699C116.602 633.372 109.562 624.717 109.562 613.412C109.562 612.497 109.956 611.415 111.036 610.135C112.123 608.848 113.81 607.477 116.138 606.05C120.793 603.198 127.647 600.337 136.298 597.515C153.571 591.88 177.563 586.541 204.314 581.697C257.793 572.014 321.996 564.365 364.808 560.285L365.335 560.235L365.768 559.931C441.302 506.82 610.474 392.215 683.724 358.011Z" fill="#565455" stroke="black" stroke-width="4"/>
            <path d="M907.331 53.0548C907.331 60.4071 901.375 66.3651 894.03 66.3651C886.686 66.3651 880.729 60.4071 880.729 53.0548C880.729 45.7026 886.686 39.7445 894.03 39.7445C901.375 39.7445 907.331 45.7026 907.331 53.0548Z" fill="black" stroke="black" stroke-width="4"/>
            <path d="M958.294 92.8608C918.512 98.9849 867.101 177.374 942.993 380.694C1013.86 570.542 636.975 640.969 548.229 634.845C569.65 644.031 636.217 661.188 719.6 656.28C823.646 650.156 991.956 524.612 998.077 497.053C1004.61 467.614 1028.68 411.316 998.077 340.888C981.661 303.108 918.512 224.53 933.813 166.35C943.446 129.722 949.114 105.109 970.535 102.047C973.595 101.61 967.475 98.9857 958.294 92.8608Z" fill="black" fill-opacity="0.12"/>
            <path d="M958.294 92.8608C967.475 98.9857 973.595 101.61 970.535 102.047C995.016 104.496 1040.92 98.9857 1043.98 92.8616C1043.98 92.8616 1025.62 89.7995 1001.14 89.7995C976.655 89.7995 958.294 92.8608 958.294 92.8608Z" fill="black" fill-opacity="0.12"/>
        </g>
    </g>
    <defs>
        <filter id="filter0_d" x="106.562" y="0" width="943.477" height="855.406" filterUnits="userSpaceOnUse" color-interpolation-filters="sRGB">
            <feFlood flood-opacity="0" result="BackgroundImageFix"/>
            <feColorMatrix in="SourceAlpha" type="matrix" values="0 0 0 0 0 0 0 0 0 0 0 0 0 0 0 0 0 0 127 0"/>
            <feOffset dx="1" dy="1"/>
            <feGaussianBlur stdDeviation="1"/>
            <feColorMatrix type="matrix" values="0 0 0 0 0 0 0 0 0 0 0 0 0 0 0 0 0 0 0.1 0"/>
            <feBlend mode="normal" in2="BackgroundImageFix" result="effect1_dropShadow"/>
            <feBlend mode="normal" in="SourceGraphic" in2="effect1_dropShadow" result="shape"/>
        </filter>
        <filter id="filter1_d" x="103.562" y="1" width="947.477" height="859.406" filterUnits="userSpaceOnUse" color-interpolation-filters="sRGB">
            <feFlood flood-opacity="0" result="BackgroundImageFix"/>
            <feColorMatrix in="SourceAlpha" type="matrix" values="0 0 0 0 0 0 0 0 0 0 0 0 0 0 0 0 0 0 127 0"/>
            <feOffset dy="4"/>
            <feGaussianBlur stdDeviation="2"/>
            <feColorMatrix type="matrix" values="0 0 0 0 0 0 0 0 0 0 0 0 0 0 0 0 0 0 0.25 0"/>
            <feBlend mode="normal" in2="BackgroundImageFix" result="effect1_dropShadow"/>
            <feBlend mode="normal" in="SourceGraphic" in2="effect1_dropShadow" result="shape"/>
        </filter>
    </defs>
</svg>
